#!OML:ASF E:\id_vita\Project 1\Capture day 1\Session 1\Female.ASF
:FULLY-SPECIFIED
:DEGREES
908
root -20.8986 16.2726 -0.723362 369.682 -176.339 -357.94
lowerback -14.7512 0.68798 -3.2187
upperback -3.37533 0.959525 0.639209
thorax 4.61538 0.265668 2.65703
lowerneck 13.0989 0.497026 -3.67235
upperneck -13.2634 0.656411 5.28751
head -6.20581 0.0238067 2.23519
rclavicle -1.67476e-014 0
rhumerus -32.0206 -19.9061 -83.7338
rradius 17.431
rwrist 26.4936
rhand -13.3886 11.2984
rfingers 7.12502
rthumb 12.7186 -18.2942
lclavicle -1.67476e-014 0
lhumerus -34.6526 35.4532 73.5463
lradius 12.8766
lwrist -62.9862
lhand -6.36975 23.6898
lfingers 7.12502
lthumb 19.4769 52.7343
rfemur -14.324 6.10988 27.2254
rtibia 24.8998
rfoot -8.88355 -23.1998
rtoes -11.1649
lfemur -15.5713 -2.35642 -10.9476
ltibia 35.8583
lfoot -22.6344 3.70185
ltoes -17.3488
909
root -20.8828 16.2752 -0.72379 369.629 -176.371 -358.004
lowerback -14.7128 0.663978 -3.33666
upperback -3.34264 0.949574 0.641989
thorax 4.62728 0.260977 2.72483
lowerneck 12.7114 0.44906 -3.58057
upperneck -12.6471 0.592149 5.14854
head -5.94107 0.0134598 2.17272
rclavicle -1.12313e-014 -1.07344e-014
rhumerus -31.9458 -19.9994 -83.7796
rradius 17.5133
rwrist 26.6243
rhand -13.1696 11.2151
rfingers 7.12502
rthumb 12.9297 -18.3643
lclavicle -1.12313e-014 -1.07344e-014
lhumerus -34.3579 35.3133 73.8975
lradius 12.6345
lwrist -61.8804
lhand -5.27973 23.741
lfingers 7.12502
lthumb 20.5246 52.6761
rfemur -14.2663 6.1236 27.2275
rtibia 24.9089
rfoot -8.44297 -23.1623
rtoes -12.2322
lfemur -15.7547 -2.24662 -10.8873
ltibia 36.2738
lfoot -22.484 3.13772
ltoes -17.3008
910
root -20.8669 16.2749 -0.723474 369.582 -176.422 -358.066
lowerback -14.7468 0.68708 -3.26617
upperback -3.26587 0.987314 0.508331
thorax 4.72858 0.281104 2.55221
lowerneck 12.4591 0.424518 -3.51414
upperneck -12.1913 0.586507 5.27175
head -5.75473 0.00623534 2.1958
rclavicle -2.79292e-014 -7.15625e-015
rhumerus -31.6641 -19.8559 -84.2059
rradius 17.3666
rwrist 26.4304
rhand -13.371 10.9743
rfingers 7.12502
rthumb 12.7356 -18.6173
lclavicle -2.79292e-014 -7.15625e-015
lhumerus -33.7736 34.8016 74.4535
lradius 12.2927
lwrist -59.6692
lhand -6.12849 23.9395
lfingers 7.12502
lthumb 19.7088 52.9604
rfemur -14.2385 6.23066 27.2073
rtibia 24.9744
rfoot -8.34495 -23.1798
rtoes -12.61
lfemur -15.9348 -2.06726 -10.8418
ltibia 36.6542
lfoot -22.3986 2.62699
ltoes -17.2972
911
root -20.8524 16.2692 -0.720977 369.446 -176.481 -358.222
lowerback -14.5809 0.687362 -3.46072
upperback -3.22914 1.02152 0.489076
thorax 4.67108 0.300234 2.64604
lowerneck 12.2706 0.403671 -3.66679
upperneck -11.6941 0.552023 5.44603
head -5.56605 -0.0071291 2.27314
rclavicle 3.23025e-016 3.57812e-015
rhumerus -31.5526 -19.6197 -84.3645
rradius 17.3424
rwrist 26.2654
rhand -13.6482 10.7796
rfingers 7.12502
rthumb 12.4683 -18.8284
lclavicle 3.23025e-016 3.57812e-015
lhumerus -33.3982 34.4517 74.9947
lradius 12.0941
lwrist -59.1453
lhand -7.64507 24.3107
lfingers 7.12502
lthumb 18.2503 53.4746
rfemur -14.1004 6.33654 27.0911
rtibia 25.0253
rfoot -8.43811 -23.2412
rtoes -12.3756
lfemur -15.9978 -1.933 -10.935
ltibia 37.0327
lfoot -22.2982 2.36639
ltoes -17.379
912
root -20.835 16.2649 -0.720273 369.343 -176.636 -358.23
lowerback -14.4504 0.733944 -3.56026
upperback -3.2225 1.09564 0.519937
thorax 4.59888 0.338737 2.74606
lowerneck 12.0846 0.346842 -3.62873
upperneck -11.2081 0.472436 5.3882
head -5.37884 -0.0335022 2.24926
rclavicle 3.70236e-015 -6.75868e-015
rhumerus -31.5317 -19.6583 -84.3353
rradius 17.3276
rwrist 26.3964
rhand -13.8134 10.7469
rfingers 7.12502
rthumb 12.3091 -18.8708
lclavicle 3.70236e-015 -6.75868e-015
lhumerus -33.231 34.6401 75.1131
lradius 11.997
lwrist -59.9115
lhand -10.5041 24.5254
lfingers 7.12502
lthumb 15.4982 53.9243
rfemur -14.0186 5.98881 27.155
rtibia 25.0496
rfoot -8.65495 -22.8236
rtoes -12.4418
lfemur -16.0655 -1.69191 -10.8618
ltibia 37.4141
lfoot -22.1803 2.24536
ltoes -18.0466
